<mxfile host="app.diagrams.net" modified="2023-05-03T16:40:06.266Z" agent="Mozilla/5.0 (Macintosh; Intel Mac OS X 10_15_7) AppleWebKit/537.36 (KHTML, like Gecko) Chrome/112.0.0.0 Safari/537.36" etag="yR9png_np5YQWLiJUZoa" version="21.2.7" type="github">
  <diagram name="PÃ¡gina-1" id="dMHgioCbn1871d0u21pg">
    <mxGraphModel dx="954" dy="557" grid="1" gridSize="10" guides="1" tooltips="1" connect="1" arrows="1" fold="1" page="1" pageScale="1" pageWidth="827" pageHeight="1169" math="0" shadow="0">
      <root>
        <mxCell id="0" />
        <mxCell id="1" parent="0" />
        <mxCell id="K4-oz4xZyGMffd8XyIAh-1" value="Frontend packages" style="swimlane;whiteSpace=wrap;html=1;" vertex="1" parent="1">
          <mxGeometry x="160" y="130" width="200" height="160" as="geometry" />
        </mxCell>
        <mxCell id="K4-oz4xZyGMffd8XyIAh-3" value="HTTP Requests" style="text;html=1;align=center;verticalAlign=middle;resizable=0;points=[];autosize=1;strokeColor=none;fillColor=none;" vertex="1" parent="K4-oz4xZyGMffd8XyIAh-1">
          <mxGeometry x="45" y="58" width="110" height="30" as="geometry" />
        </mxCell>
        <mxCell id="K4-oz4xZyGMffd8XyIAh-13" value="Media" style="text;html=1;align=center;verticalAlign=middle;resizable=0;points=[];autosize=1;strokeColor=none;fillColor=none;" vertex="1" parent="K4-oz4xZyGMffd8XyIAh-1">
          <mxGeometry x="70" y="88" width="60" height="30" as="geometry" />
        </mxCell>
        <mxCell id="K4-oz4xZyGMffd8XyIAh-14" value="Error" style="text;html=1;align=center;verticalAlign=middle;resizable=0;points=[];autosize=1;strokeColor=none;fillColor=none;" vertex="1" parent="K4-oz4xZyGMffd8XyIAh-1">
          <mxGeometry x="75" y="118" width="50" height="30" as="geometry" />
        </mxCell>
        <mxCell id="K4-oz4xZyGMffd8XyIAh-2" value="Authentication" style="text;html=1;align=center;verticalAlign=middle;resizable=0;points=[];autosize=1;strokeColor=none;fillColor=none;" vertex="1" parent="1">
          <mxGeometry x="210" y="158" width="100" height="30" as="geometry" />
        </mxCell>
        <mxCell id="K4-oz4xZyGMffd8XyIAh-15" value="Backend packages" style="swimlane;whiteSpace=wrap;html=1;" vertex="1" parent="1">
          <mxGeometry x="430" y="130" width="200" height="160" as="geometry" />
        </mxCell>
        <mxCell id="K4-oz4xZyGMffd8XyIAh-16" value="Authentication" style="text;html=1;align=center;verticalAlign=middle;resizable=0;points=[];autosize=1;strokeColor=none;fillColor=none;" vertex="1" parent="K4-oz4xZyGMffd8XyIAh-15">
          <mxGeometry x="50" y="30" width="100" height="30" as="geometry" />
        </mxCell>
        <mxCell id="K4-oz4xZyGMffd8XyIAh-20" value="Data aggregation" style="text;html=1;align=center;verticalAlign=middle;resizable=0;points=[];autosize=1;strokeColor=none;fillColor=none;" vertex="1" parent="K4-oz4xZyGMffd8XyIAh-15">
          <mxGeometry x="40" y="60" width="120" height="30" as="geometry" />
        </mxCell>
        <mxCell id="K4-oz4xZyGMffd8XyIAh-21" value="HTTP Responses" style="text;html=1;align=center;verticalAlign=middle;resizable=0;points=[];autosize=1;strokeColor=none;fillColor=none;" vertex="1" parent="K4-oz4xZyGMffd8XyIAh-15">
          <mxGeometry x="45" y="90" width="120" height="30" as="geometry" />
        </mxCell>
      </root>
    </mxGraphModel>
  </diagram>
</mxfile>
